<svg width="1733" height="654" viewBox="0 0 1733 654" fill="none" xmlns="http://www.w3.org/2000/svg">
<g filter="url(#filter0_d_1_76)">
<rect x="10" y="10" width="110" height="110" rx="20" fill="black"/>
<rect x="130" y="10" width="110" height="110" rx="20" fill="black"/>
<rect x="250" y="10" width="110" height="110" rx="20" fill="black"/>
<rect x="370" y="10" width="110" height="110" rx="20" fill="black"/>
<rect x="490" y="10" width="110" height="110" rx="20" fill="black"/>
<rect x="610" y="10" width="110" height="110" rx="20" fill="black"/>
<rect x="730" y="10" width="110" height="110" rx="20" fill="black"/>
<rect x="850" y="10" width="110" height="110" rx="20" fill="black"/>
<rect x="970" y="10" width="110" height="110" rx="20" fill="black"/>
<rect x="1090" y="10" width="110" height="110" rx="20" fill="black"/>
<rect x="1210" y="10" width="110" height="110" rx="20" fill="black"/>
<rect x="1330" y="10" width="110" height="110" rx="20" fill="black"/>
<rect x="1450" y="10" width="110" height="110" rx="20" fill="black"/>
<rect x="1570" y="10" width="153" height="110" rx="20" fill="black"/>
</g>
<g filter="url(#filter1_d_1_76)">
<rect width="110" height="110" rx="20" transform="matrix(-1 0 0 1 1723 140)" fill="black"/>
<rect width="110" height="110" rx="20" transform="matrix(-1 0 0 1 1603 140)" fill="black"/>
<rect width="110" height="110" rx="20" transform="matrix(-1 0 0 1 1483 140)" fill="black"/>
<rect width="110" height="110" rx="20" transform="matrix(-1 0 0 1 1363 140)" fill="black"/>
<rect width="110" height="110" rx="20" transform="matrix(-1 0 0 1 1243 140)" fill="black"/>
<rect width="110" height="110" rx="20" transform="matrix(-1 0 0 1 1123 140)" fill="black"/>
<rect width="110" height="110" rx="20" transform="matrix(-1 0 0 1 1003 140)" fill="black"/>
<rect width="110" height="110" rx="20" transform="matrix(-1 0 0 1 883 140)" fill="black"/>
<rect width="110" height="110" rx="20" transform="matrix(-1 0 0 1 763 140)" fill="black"/>
<rect width="110" height="110" rx="20" transform="matrix(-1 0 0 1 643 140)" fill="black"/>
<rect width="110" height="110" rx="20" transform="matrix(-1 0 0 1 523 140)" fill="black"/>
<rect width="110" height="110" rx="20" transform="matrix(-1 0 0 1 403 140)" fill="black"/>
<rect width="110" height="110" rx="20" transform="matrix(-1 0 0 1 283 140)" fill="black"/>
<rect width="153" height="110" rx="20" transform="matrix(-1 0 0 1 163 140)" fill="black"/>
</g>
<g filter="url(#filter2_d_1_76)">
<rect width="191" height="110" rx="20" transform="matrix(-1 0 0 1 1722 270)" fill="black"/>
<rect width="110" height="110" rx="20" transform="matrix(-1 0 0 1 1521 270)" fill="black"/>
<rect width="110" height="110" rx="20" transform="matrix(-1 0 0 1 1401 270)" fill="black"/>
<rect width="110" height="110" rx="20" transform="matrix(-1 0 0 1 1281 270)" fill="black"/>
<rect width="110" height="110" rx="20" transform="matrix(-1 0 0 1 1161 270)" fill="black"/>
<rect width="110" height="110" rx="20" transform="matrix(-1 0 0 1 1041 270)" fill="black"/>
<rect width="110" height="110" rx="20" transform="matrix(-1 0 0 1 921 270)" fill="black"/>
<rect width="110" height="110" rx="20" transform="matrix(-1 0 0 1 801 270)" fill="black"/>
<rect width="110" height="110" rx="20" transform="matrix(-1 0 0 1 681 270)" fill="black"/>
<rect width="110" height="110" rx="20" transform="matrix(-1 0 0 1 561 270)" fill="black"/>
<rect width="110" height="110" rx="20" transform="matrix(-1 0 0 1 441 270)" fill="black"/>
<rect width="110" height="110" rx="20" transform="matrix(-1 0 0 1 321 270)" fill="black"/>
<rect width="191" height="110" rx="20" transform="matrix(-1 0 0 1 201 270)" fill="black"/>
</g>
<g filter="url(#filter3_d_1_76)">
<rect width="251" height="110" rx="20" transform="matrix(-1 0 0 1 1722 400)" fill="black"/>
<rect width="110" height="110" rx="20" transform="matrix(-1 0 0 1 1461 400)" fill="black"/>
<rect width="110" height="110" rx="20" transform="matrix(-1 0 0 1 1341 400)" fill="black"/>
<rect width="110" height="110" rx="20" transform="matrix(-1 0 0 1 1221 400)" fill="black"/>
<rect width="110" height="110" rx="20" transform="matrix(-1 0 0 1 1101 400)" fill="black"/>
<rect width="110" height="110" rx="20" transform="matrix(-1 0 0 1 981 400)" fill="black"/>
<rect width="110" height="110" rx="20" transform="matrix(-1 0 0 1 861 400)" fill="black"/>
<rect width="110" height="110" rx="20" transform="matrix(-1 0 0 1 741 400)" fill="black"/>
<rect width="110" height="110" rx="20" transform="matrix(-1 0 0 1 621 400)" fill="black"/>
<rect width="110" height="110" rx="20" transform="matrix(-1 0 0 1 501 400)" fill="black"/>
<rect width="110" height="110" rx="20" transform="matrix(-1 0 0 1 381 400)" fill="black"/>
<rect width="251" height="110" rx="20" transform="matrix(-1 0 0 1 261 400)" fill="black"/>
</g>
<g filter="url(#filter4_d_1_76)">
<rect width="110" height="53.5" rx="20" transform="matrix(-1 0 0 1 1722 586.5)" fill="black"/>
<path d="M1492 583.5H1602V550C1602 538.954 1593.05 530 1582 530H1512C1500.95 530 1492 538.954 1492 550V583.5Z" fill="black"/>
<path d="M1602 586.5H1492V620C1492 631.046 1500.95 640 1512 640H1582C1593.05 640 1602 631.046 1602 620V586.5Z" fill="black"/>
<rect width="110" height="53.5" rx="20" transform="matrix(-1 0 0 1 1482 586.5)" fill="black"/>
<rect width="110" height="110" rx="20" transform="matrix(-1 0 0 1 1362 530)" fill="black"/>
<rect width="131" height="110" rx="20" transform="matrix(-1 0 0 1 1242 530)" fill="black"/>
<rect width="590" height="110" rx="20" transform="matrix(-1 0 0 1 1101 530)" fill="black"/>
<rect width="131" height="110" rx="20" transform="matrix(-1 0 0 1 501 530)" fill="black"/>
<rect width="110" height="110" rx="20" transform="matrix(-1 0 0 1 360 530)" fill="black"/>
<rect width="110" height="110" rx="20" transform="matrix(-1 0 0 1 240 530)" fill="black"/>
<rect width="110" height="110" rx="20" transform="matrix(-1 0 0 1 120 530)" fill="black"/>
</g>
<defs>
<filter id="filter0_d_1_76" x="-6" y="0" width="1745" height="144" filterUnits="userSpaceOnUse" color-interpolation-filters="sRGB">
<feFlood flood-opacity="0" result="BackgroundImageFix"/>
<feColorMatrix in="SourceAlpha" type="matrix" values="0 0 0 0 0 0 0 0 0 0 0 0 0 0 0 0 0 0 127 0" result="hardAlpha"/>
<feOffset dy="8"/>
<feGaussianBlur stdDeviation="3"/>
<feComposite in2="hardAlpha" operator="out"/>
<feColorMatrix type="matrix" values="0 0 0 0 0 0 0 0 0 0 0 0 0 0 0 0 0 0 0.5 0"/>
<feBlend mode="normal" in2="BackgroundImageFix" result="effect1_dropShadow_1_76"/>
<feBlend mode="normal" in="SourceGraphic" in2="effect1_dropShadow_1_76" result="shape"/>
</filter>
<filter id="filter1_d_1_76" x="-6" y="130" width="1745" height="144" filterUnits="userSpaceOnUse" color-interpolation-filters="sRGB">
<feFlood flood-opacity="0" result="BackgroundImageFix"/>
<feColorMatrix in="SourceAlpha" type="matrix" values="0 0 0 0 0 0 0 0 0 0 0 0 0 0 0 0 0 0 127 0" result="hardAlpha"/>
<feOffset dy="8"/>
<feGaussianBlur stdDeviation="3"/>
<feComposite in2="hardAlpha" operator="out"/>
<feColorMatrix type="matrix" values="0 0 0 0 0 0 0 0 0 0 0 0 0 0 0 0 0 0 0.5 0"/>
<feBlend mode="normal" in2="BackgroundImageFix" result="effect1_dropShadow_1_76"/>
<feBlend mode="normal" in="SourceGraphic" in2="effect1_dropShadow_1_76" result="shape"/>
</filter>
<filter id="filter2_d_1_76" x="-6" y="260" width="1744" height="144" filterUnits="userSpaceOnUse" color-interpolation-filters="sRGB">
<feFlood flood-opacity="0" result="BackgroundImageFix"/>
<feColorMatrix in="SourceAlpha" type="matrix" values="0 0 0 0 0 0 0 0 0 0 0 0 0 0 0 0 0 0 127 0" result="hardAlpha"/>
<feOffset dy="8"/>
<feGaussianBlur stdDeviation="3"/>
<feComposite in2="hardAlpha" operator="out"/>
<feColorMatrix type="matrix" values="0 0 0 0 0 0 0 0 0 0 0 0 0 0 0 0 0 0 0.5 0"/>
<feBlend mode="normal" in2="BackgroundImageFix" result="effect1_dropShadow_1_76"/>
<feBlend mode="normal" in="SourceGraphic" in2="effect1_dropShadow_1_76" result="shape"/>
</filter>
<filter id="filter3_d_1_76" x="-6" y="390" width="1744" height="144" filterUnits="userSpaceOnUse" color-interpolation-filters="sRGB">
<feFlood flood-opacity="0" result="BackgroundImageFix"/>
<feColorMatrix in="SourceAlpha" type="matrix" values="0 0 0 0 0 0 0 0 0 0 0 0 0 0 0 0 0 0 127 0" result="hardAlpha"/>
<feOffset dy="8"/>
<feGaussianBlur stdDeviation="3"/>
<feComposite in2="hardAlpha" operator="out"/>
<feColorMatrix type="matrix" values="0 0 0 0 0 0 0 0 0 0 0 0 0 0 0 0 0 0 0.5 0"/>
<feBlend mode="normal" in2="BackgroundImageFix" result="effect1_dropShadow_1_76"/>
<feBlend mode="normal" in="SourceGraphic" in2="effect1_dropShadow_1_76" result="shape"/>
</filter>
<filter id="filter4_d_1_76" x="-6" y="520" width="1744" height="144" filterUnits="userSpaceOnUse" color-interpolation-filters="sRGB">
<feFlood flood-opacity="0" result="BackgroundImageFix"/>
<feColorMatrix in="SourceAlpha" type="matrix" values="0 0 0 0 0 0 0 0 0 0 0 0 0 0 0 0 0 0 127 0" result="hardAlpha"/>
<feOffset dy="8"/>
<feGaussianBlur stdDeviation="3"/>
<feComposite in2="hardAlpha" operator="out"/>
<feColorMatrix type="matrix" values="0 0 0 0 0 0 0 0 0 0 0 0 0 0 0 0 0 0 0.5 0"/>
<feBlend mode="normal" in2="BackgroundImageFix" result="effect1_dropShadow_1_76"/>
<feBlend mode="normal" in="SourceGraphic" in2="effect1_dropShadow_1_76" result="shape"/>
</filter>
</defs>
</svg>
