<svg width="90" height="256" viewBox="0 0 90 256" fill="none" xmlns="http://www.w3.org/2000/svg">
<g clip-path="url(#clip0_1_987)">
<circle cx="1" cy="1" r="1" fill="black"/>
<circle cx="6" cy="1" r="1" fill="black"/>
<circle cx="11" cy="1" r="1" fill="black"/>
<circle cx="16" cy="1" r="1" fill="black"/>
<circle cx="21" cy="1" r="1" fill="black"/>
<circle cx="26" cy="1" r="1" fill="black"/>
<circle cx="31" cy="1" r="1" fill="black"/>
<circle cx="36" cy="1" r="1" fill="black"/>
<circle cx="41" cy="1" r="1" fill="black"/>
<circle cx="46" cy="1" r="1" fill="black"/>
<circle cx="51" cy="1" r="1" fill="black"/>
<circle cx="56" cy="1" r="1" fill="black"/>
<circle cx="61" cy="1" r="1" fill="black"/>
<circle cx="66" cy="1" r="1" fill="black"/>
<circle cx="71" cy="1" r="1" fill="black"/>
<circle cx="76" cy="1" r="1" fill="black"/>
<circle cx="81" cy="1" r="1" fill="black"/>
<circle cx="86" cy="1" r="1" fill="black"/>
<circle cx="1" cy="6" r="1" fill="black"/>
<circle cx="6" cy="6" r="1" fill="black"/>
<circle cx="11" cy="6" r="1" fill="black"/>
<circle cx="16" cy="6" r="1" fill="black"/>
<circle cx="21" cy="6" r="1" fill="black"/>
<circle cx="26" cy="6" r="1" fill="black"/>
<circle cx="31" cy="6" r="1" fill="black"/>
<circle cx="36" cy="6" r="1" fill="black"/>
<circle cx="41" cy="6" r="1" fill="black"/>
<circle cx="46" cy="6" r="1" fill="black"/>
<circle cx="51" cy="6" r="1" fill="black"/>
<circle cx="56" cy="6" r="1" fill="black"/>
<circle cx="61" cy="6" r="1" fill="black"/>
<circle cx="66" cy="6" r="1" fill="black"/>
<circle cx="71" cy="6" r="1" fill="black"/>
<circle cx="76" cy="6" r="1" fill="black"/>
<circle cx="81" cy="6" r="1" fill="black"/>
<circle cx="86" cy="6" r="1" fill="black"/>
<circle cx="1" cy="11" r="1" fill="black"/>
<circle cx="6" cy="11" r="1" fill="black"/>
<circle cx="11" cy="11" r="1" fill="black"/>
<circle cx="16" cy="11" r="1" fill="black"/>
<circle cx="21" cy="11" r="1" fill="black"/>
<circle cx="26" cy="11" r="1" fill="black"/>
<circle cx="31" cy="11" r="1" fill="black"/>
<circle cx="36" cy="11" r="1" fill="black"/>
<circle cx="41" cy="11" r="1" fill="black"/>
<circle cx="46" cy="11" r="1" fill="black"/>
<circle cx="51" cy="11" r="1" fill="black"/>
<circle cx="56" cy="11" r="1" fill="black"/>
<circle cx="61" cy="11" r="1" fill="black"/>
<circle cx="66" cy="11" r="1" fill="black"/>
<circle cx="71" cy="11" r="1" fill="black"/>
<circle cx="76" cy="11" r="1" fill="black"/>
<circle cx="81" cy="11" r="1" fill="black"/>
<circle cx="86" cy="11" r="1" fill="black"/>
<circle cx="1" cy="16" r="1" fill="black"/>
<circle cx="6" cy="16" r="1" fill="black"/>
<circle cx="11" cy="16" r="1" fill="black"/>
<circle cx="16" cy="16" r="1" fill="black"/>
<circle cx="21" cy="16" r="1" fill="black"/>
<circle cx="26" cy="16" r="1" fill="black"/>
<circle cx="31" cy="16" r="1" fill="black"/>
<circle cx="36" cy="16" r="1" fill="black"/>
<circle cx="41" cy="16" r="1" fill="black"/>
<circle cx="46" cy="16" r="1" fill="black"/>
<circle cx="51" cy="16" r="1" fill="black"/>
<circle cx="56" cy="16" r="1" fill="black"/>
<circle cx="61" cy="16" r="1" fill="black"/>
<circle cx="66" cy="16" r="1" fill="black"/>
<circle cx="71" cy="16" r="1" fill="black"/>
<circle cx="76" cy="16" r="1" fill="black"/>
<circle cx="81" cy="16" r="1" fill="black"/>
<circle cx="86" cy="16" r="1" fill="black"/>
<circle cx="1" cy="21" r="1" fill="black"/>
<circle cx="6" cy="21" r="1" fill="black"/>
<circle cx="11" cy="21" r="1" fill="black"/>
<circle cx="16" cy="21" r="1" fill="black"/>
<circle cx="21" cy="21" r="1" fill="black"/>
<circle cx="26" cy="21" r="1" fill="black"/>
<circle cx="31" cy="21" r="1" fill="black"/>
<circle cx="36" cy="21" r="1" fill="black"/>
<circle cx="41" cy="21" r="1" fill="black"/>
<circle cx="46" cy="21" r="1" fill="black"/>
<circle cx="51" cy="21" r="1" fill="black"/>
<circle cx="56" cy="21" r="1" fill="black"/>
<circle cx="61" cy="21" r="1" fill="black"/>
<circle cx="66" cy="21" r="1" fill="black"/>
<circle cx="71" cy="21" r="1" fill="black"/>
<circle cx="76" cy="21" r="1" fill="black"/>
<circle cx="81" cy="21" r="1" fill="black"/>
<circle cx="86" cy="21" r="1" fill="black"/>
<circle cx="1" cy="26" r="1" fill="black"/>
<circle cx="6" cy="26" r="1" fill="black"/>
<circle cx="11" cy="26" r="1" fill="black"/>
<circle cx="16" cy="26" r="1" fill="black"/>
<circle cx="21" cy="26" r="1" fill="black"/>
<circle cx="26" cy="26" r="1" fill="black"/>
<circle cx="31" cy="26" r="1" fill="black"/>
<circle cx="36" cy="26" r="1" fill="black"/>
<circle cx="41" cy="26" r="1" fill="black"/>
<circle cx="46" cy="26" r="1" fill="black"/>
<circle cx="51" cy="26" r="1" fill="black"/>
<circle cx="56" cy="26" r="1" fill="black"/>
<circle cx="61" cy="26" r="1" fill="black"/>
<circle cx="66" cy="26" r="1" fill="black"/>
<circle cx="71" cy="26" r="1" fill="black"/>
<circle cx="76" cy="26" r="1" fill="black"/>
<circle cx="81" cy="26" r="1" fill="black"/>
<circle cx="86" cy="26" r="1" fill="black"/>
<circle cx="1" cy="31" r="1" fill="black"/>
<circle cx="6" cy="31" r="1" fill="black"/>
<circle cx="11" cy="31" r="1" fill="black"/>
<circle cx="16" cy="31" r="1" fill="black"/>
<circle cx="21" cy="31" r="1" fill="black"/>
<circle cx="26" cy="31" r="1" fill="black"/>
<circle cx="31" cy="31" r="1" fill="black"/>
<circle cx="36" cy="31" r="1" fill="black"/>
<circle cx="41" cy="31" r="1" fill="black"/>
<circle cx="46" cy="31" r="1" fill="black"/>
<circle cx="51" cy="31" r="1" fill="black"/>
<circle cx="56" cy="31" r="1" fill="black"/>
<circle cx="61" cy="31" r="1" fill="black"/>
<circle cx="66" cy="31" r="1" fill="black"/>
<circle cx="71" cy="31" r="1" fill="black"/>
<circle cx="76" cy="31" r="1" fill="black"/>
<circle cx="81" cy="31" r="1" fill="black"/>
<circle cx="86" cy="31" r="1" fill="black"/>
<circle cx="1" cy="36" r="1" fill="black"/>
<circle cx="6" cy="36" r="1" fill="black"/>
<circle cx="11" cy="36" r="1" fill="black"/>
<circle cx="16" cy="36" r="1" fill="black"/>
<circle cx="21" cy="36" r="1" fill="black"/>
<circle cx="26" cy="36" r="1" fill="black"/>
<circle cx="31" cy="36" r="1" fill="black"/>
<circle cx="36" cy="36" r="1" fill="black"/>
<circle cx="41" cy="36" r="1" fill="black"/>
<circle cx="46" cy="36" r="1" fill="black"/>
<circle cx="51" cy="36" r="1" fill="black"/>
<circle cx="56" cy="36" r="1" fill="black"/>
<circle cx="61" cy="36" r="1" fill="black"/>
<circle cx="66" cy="36" r="1" fill="black"/>
<circle cx="71" cy="36" r="1" fill="black"/>
<circle cx="76" cy="36" r="1" fill="black"/>
<circle cx="81" cy="36" r="1" fill="black"/>
<circle cx="86" cy="36" r="1" fill="black"/>
<circle cx="1" cy="41" r="1" fill="black"/>
<circle cx="6" cy="41" r="1" fill="black"/>
<circle cx="11" cy="41" r="1" fill="black"/>
<circle cx="16" cy="41" r="1" fill="black"/>
<circle cx="21" cy="41" r="1" fill="black"/>
<circle cx="26" cy="41" r="1" fill="black"/>
<circle cx="31" cy="41" r="1" fill="black"/>
<circle cx="36" cy="41" r="1" fill="black"/>
<circle cx="41" cy="41" r="1" fill="black"/>
<circle cx="46" cy="41" r="1" fill="black"/>
<circle cx="51" cy="41" r="1" fill="black"/>
<circle cx="56" cy="41" r="1" fill="black"/>
<circle cx="61" cy="41" r="1" fill="black"/>
<circle cx="66" cy="41" r="1" fill="black"/>
<circle cx="71" cy="41" r="1" fill="black"/>
<circle cx="76" cy="41" r="1" fill="black"/>
<circle cx="81" cy="41" r="1" fill="black"/>
<circle cx="86" cy="41" r="1" fill="black"/>
<circle cx="1" cy="46" r="1" fill="black"/>
<circle cx="6" cy="46" r="1" fill="black"/>
<circle cx="11" cy="46" r="1" fill="black"/>
<circle cx="16" cy="46" r="1" fill="black"/>
<circle cx="21" cy="46" r="1" fill="black"/>
<circle cx="26" cy="46" r="1" fill="black"/>
<circle cx="31" cy="46" r="1" fill="black"/>
<circle cx="36" cy="46" r="1" fill="black"/>
<circle cx="41" cy="46" r="1" fill="black"/>
<circle cx="46" cy="46" r="1" fill="black"/>
<circle cx="51" cy="46" r="1" fill="black"/>
<circle cx="56" cy="46" r="1" fill="black"/>
<circle cx="61" cy="46" r="1" fill="black"/>
<circle cx="66" cy="46" r="1" fill="black"/>
<circle cx="71" cy="46" r="1" fill="black"/>
<circle cx="76" cy="46" r="1" fill="black"/>
<circle cx="81" cy="46" r="1" fill="black"/>
<circle cx="86" cy="46" r="1" fill="black"/>
<circle cx="1" cy="51" r="1" fill="black"/>
<circle cx="6" cy="51" r="1" fill="black"/>
<circle cx="11" cy="51" r="1" fill="black"/>
<circle cx="16" cy="51" r="1" fill="black"/>
<circle cx="21" cy="51" r="1" fill="black"/>
<circle cx="26" cy="51" r="1" fill="black"/>
<circle cx="31" cy="51" r="1" fill="black"/>
<circle cx="36" cy="51" r="1" fill="black"/>
<circle cx="41" cy="51" r="1" fill="black"/>
<circle cx="46" cy="51" r="1" fill="black"/>
<circle cx="51" cy="51" r="1" fill="black"/>
<circle cx="56" cy="51" r="1" fill="black"/>
<circle cx="61" cy="51" r="1" fill="black"/>
<circle cx="66" cy="51" r="1" fill="black"/>
<circle cx="71" cy="51" r="1" fill="black"/>
<circle cx="76" cy="51" r="1" fill="black"/>
<circle cx="81" cy="51" r="1" fill="black"/>
<circle cx="86" cy="51" r="1" fill="black"/>
<circle cx="1" cy="56" r="1" fill="black"/>
<circle cx="6" cy="56" r="1" fill="black"/>
<circle cx="11" cy="56" r="1" fill="black"/>
<circle cx="16" cy="56" r="1" fill="black"/>
<circle cx="21" cy="56" r="1" fill="black"/>
<circle cx="26" cy="56" r="1" fill="black"/>
<circle cx="31" cy="56" r="1" fill="black"/>
<circle cx="36" cy="56" r="1" fill="black"/>
<circle cx="41" cy="56" r="1" fill="black"/>
<circle cx="46" cy="56" r="1" fill="black"/>
<circle cx="51" cy="56" r="1" fill="black"/>
<circle cx="56" cy="56" r="1" fill="black"/>
<circle cx="61" cy="56" r="1" fill="black"/>
<circle cx="66" cy="56" r="1" fill="black"/>
<circle cx="71" cy="56" r="1" fill="black"/>
<circle cx="76" cy="56" r="1" fill="black"/>
<circle cx="81" cy="56" r="1" fill="black"/>
<circle cx="86" cy="56" r="1" fill="black"/>
<circle cx="1" cy="61" r="1" fill="black"/>
<circle cx="6" cy="61" r="1" fill="black"/>
<circle cx="11" cy="61" r="1" fill="black"/>
<circle cx="16" cy="61" r="1" fill="black"/>
<circle cx="21" cy="61" r="1" fill="black"/>
<circle cx="26" cy="61" r="1" fill="black"/>
<circle cx="31" cy="61" r="1" fill="black"/>
<circle cx="36" cy="61" r="1" fill="black"/>
<circle cx="41" cy="61" r="1" fill="black"/>
<circle cx="46" cy="61" r="1" fill="black"/>
<circle cx="51" cy="61" r="1" fill="black"/>
<circle cx="56" cy="61" r="1" fill="black"/>
<circle cx="61" cy="61" r="1" fill="black"/>
<circle cx="66" cy="61" r="1" fill="black"/>
<circle cx="71" cy="61" r="1" fill="black"/>
<circle cx="76" cy="61" r="1" fill="black"/>
<circle cx="81" cy="61" r="1" fill="black"/>
<circle cx="86" cy="61" r="1" fill="black"/>
<circle cx="1" cy="66" r="1" fill="black"/>
<circle cx="6" cy="66" r="1" fill="black"/>
<circle cx="11" cy="66" r="1" fill="black"/>
<circle cx="16" cy="66" r="1" fill="black"/>
<circle cx="21" cy="66" r="1" fill="black"/>
<circle cx="26" cy="66" r="1" fill="black"/>
<circle cx="31" cy="66" r="1" fill="black"/>
<circle cx="36" cy="66" r="1" fill="black"/>
<circle cx="41" cy="66" r="1" fill="black"/>
<circle cx="46" cy="66" r="1" fill="black"/>
<circle cx="51" cy="66" r="1" fill="black"/>
<circle cx="56" cy="66" r="1" fill="black"/>
<circle cx="61" cy="66" r="1" fill="black"/>
<circle cx="66" cy="66" r="1" fill="black"/>
<circle cx="71" cy="66" r="1" fill="black"/>
<circle cx="76" cy="66" r="1" fill="black"/>
<circle cx="81" cy="66" r="1" fill="black"/>
<circle cx="86" cy="66" r="1" fill="black"/>
<circle cx="1" cy="71" r="1" fill="black"/>
<circle cx="6" cy="71" r="1" fill="black"/>
<circle cx="11" cy="71" r="1" fill="black"/>
<circle cx="16" cy="71" r="1" fill="black"/>
<circle cx="21" cy="71" r="1" fill="black"/>
<circle cx="26" cy="71" r="1" fill="black"/>
<circle cx="31" cy="71" r="1" fill="black"/>
<circle cx="36" cy="71" r="1" fill="black"/>
<circle cx="41" cy="71" r="1" fill="black"/>
<circle cx="46" cy="71" r="1" fill="black"/>
<circle cx="51" cy="71" r="1" fill="black"/>
<circle cx="56" cy="71" r="1" fill="black"/>
<circle cx="61" cy="71" r="1" fill="black"/>
<circle cx="66" cy="71" r="1" fill="black"/>
<circle cx="71" cy="71" r="1" fill="black"/>
<circle cx="76" cy="71" r="1" fill="black"/>
<circle cx="81" cy="71" r="1" fill="black"/>
<circle cx="86" cy="71" r="1" fill="black"/>
<circle cx="1" cy="76" r="1" fill="black"/>
<circle cx="6" cy="76" r="1" fill="black"/>
<circle cx="11" cy="76" r="1" fill="black"/>
<circle cx="16" cy="76" r="1" fill="black"/>
<circle cx="21" cy="76" r="1" fill="black"/>
<circle cx="26" cy="76" r="1" fill="black"/>
<circle cx="31" cy="76" r="1" fill="black"/>
<circle cx="36" cy="76" r="1" fill="black"/>
<circle cx="41" cy="76" r="1" fill="black"/>
<circle cx="46" cy="76" r="1" fill="black"/>
<circle cx="51" cy="76" r="1" fill="black"/>
<circle cx="56" cy="76" r="1" fill="black"/>
<circle cx="61" cy="76" r="1" fill="black"/>
<circle cx="66" cy="76" r="1" fill="black"/>
<circle cx="71" cy="76" r="1" fill="black"/>
<circle cx="76" cy="76" r="1" fill="black"/>
<circle cx="81" cy="76" r="1" fill="black"/>
<circle cx="86" cy="76" r="1" fill="black"/>
<circle cx="1" cy="81" r="1" fill="black"/>
<circle cx="6" cy="81" r="1" fill="black"/>
<circle cx="11" cy="81" r="1" fill="black"/>
<circle cx="16" cy="81" r="1" fill="black"/>
<circle cx="21" cy="81" r="1" fill="black"/>
<circle cx="26" cy="81" r="1" fill="black"/>
<circle cx="31" cy="81" r="1" fill="black"/>
<circle cx="36" cy="81" r="1" fill="black"/>
<circle cx="41" cy="81" r="1" fill="black"/>
<circle cx="46" cy="81" r="1" fill="black"/>
<circle cx="51" cy="81" r="1" fill="black"/>
<circle cx="56" cy="81" r="1" fill="black"/>
<circle cx="61" cy="81" r="1" fill="black"/>
<circle cx="66" cy="81" r="1" fill="black"/>
<circle cx="71" cy="81" r="1" fill="black"/>
<circle cx="76" cy="81" r="1" fill="black"/>
<circle cx="81" cy="81" r="1" fill="black"/>
<circle cx="86" cy="81" r="1" fill="black"/>
<circle cx="1" cy="86" r="1" fill="black"/>
<circle cx="6" cy="86" r="1" fill="black"/>
<circle cx="11" cy="86" r="1" fill="black"/>
<circle cx="16" cy="86" r="1" fill="black"/>
<circle cx="21" cy="86" r="1" fill="black"/>
<circle cx="26" cy="86" r="1" fill="black"/>
<circle cx="31" cy="86" r="1" fill="black"/>
<circle cx="36" cy="86" r="1" fill="black"/>
<circle cx="41" cy="86" r="1" fill="black"/>
<circle cx="46" cy="86" r="1" fill="black"/>
<circle cx="51" cy="86" r="1" fill="black"/>
<circle cx="56" cy="86" r="1" fill="black"/>
<circle cx="61" cy="86" r="1" fill="black"/>
<circle cx="66" cy="86" r="1" fill="black"/>
<circle cx="71" cy="86" r="1" fill="black"/>
<circle cx="76" cy="86" r="1" fill="black"/>
<circle cx="81" cy="86" r="1" fill="black"/>
<circle cx="86" cy="86" r="1" fill="black"/>
<circle cx="1" cy="91" r="1" fill="black"/>
<circle cx="6" cy="91" r="1" fill="black"/>
<circle cx="11" cy="91" r="1" fill="black"/>
<circle cx="16" cy="91" r="1" fill="black"/>
<circle cx="21" cy="91" r="1" fill="black"/>
<circle cx="26" cy="91" r="1" fill="black"/>
<circle cx="31" cy="91" r="1" fill="black"/>
<circle cx="36" cy="91" r="1" fill="black"/>
<circle cx="41" cy="91" r="1" fill="black"/>
<circle cx="46" cy="91" r="1" fill="black"/>
<circle cx="51" cy="91" r="1" fill="black"/>
<circle cx="56" cy="91" r="1" fill="black"/>
<circle cx="61" cy="91" r="1" fill="black"/>
<circle cx="66" cy="91" r="1" fill="black"/>
<circle cx="71" cy="91" r="1" fill="black"/>
<circle cx="76" cy="91" r="1" fill="black"/>
<circle cx="81" cy="91" r="1" fill="black"/>
<circle cx="86" cy="91" r="1" fill="black"/>
<circle cx="1" cy="96" r="1" fill="black"/>
<circle cx="6" cy="96" r="1" fill="black"/>
<circle cx="11" cy="96" r="1" fill="black"/>
<circle cx="16" cy="96" r="1" fill="black"/>
<circle cx="21" cy="96" r="1" fill="black"/>
<circle cx="26" cy="96" r="1" fill="black"/>
<circle cx="31" cy="96" r="1" fill="black"/>
<circle cx="36" cy="96" r="1" fill="black"/>
<circle cx="41" cy="96" r="1" fill="black"/>
<circle cx="46" cy="96" r="1" fill="black"/>
<circle cx="51" cy="96" r="1" fill="black"/>
<circle cx="56" cy="96" r="1" fill="black"/>
<circle cx="61" cy="96" r="1" fill="black"/>
<circle cx="66" cy="96" r="1" fill="black"/>
<circle cx="71" cy="96" r="1" fill="black"/>
<circle cx="76" cy="96" r="1" fill="black"/>
<circle cx="81" cy="96" r="1" fill="black"/>
<circle cx="86" cy="96" r="1" fill="black"/>
<circle cx="1" cy="101" r="1" fill="black"/>
<circle cx="6" cy="101" r="1" fill="black"/>
<circle cx="11" cy="101" r="1" fill="black"/>
<circle cx="16" cy="101" r="1" fill="black"/>
<circle cx="21" cy="101" r="1" fill="black"/>
<circle cx="26" cy="101" r="1" fill="black"/>
<circle cx="31" cy="101" r="1" fill="black"/>
<circle cx="36" cy="101" r="1" fill="black"/>
<circle cx="41" cy="101" r="1" fill="black"/>
<circle cx="46" cy="101" r="1" fill="black"/>
<circle cx="51" cy="101" r="1" fill="black"/>
<circle cx="56" cy="101" r="1" fill="black"/>
<circle cx="61" cy="101" r="1" fill="black"/>
<circle cx="66" cy="101" r="1" fill="black"/>
<circle cx="71" cy="101" r="1" fill="black"/>
<circle cx="76" cy="101" r="1" fill="black"/>
<circle cx="81" cy="101" r="1" fill="black"/>
<circle cx="86" cy="101" r="1" fill="black"/>
<circle cx="1" cy="106" r="1" fill="black"/>
<circle cx="6" cy="106" r="1" fill="black"/>
<circle cx="11" cy="106" r="1" fill="black"/>
<circle cx="16" cy="106" r="1" fill="black"/>
<circle cx="21" cy="106" r="1" fill="black"/>
<circle cx="26" cy="106" r="1" fill="black"/>
<circle cx="31" cy="106" r="1" fill="black"/>
<circle cx="36" cy="106" r="1" fill="black"/>
<circle cx="41" cy="106" r="1" fill="black"/>
<circle cx="46" cy="106" r="1" fill="black"/>
<circle cx="51" cy="106" r="1" fill="black"/>
<circle cx="56" cy="106" r="1" fill="black"/>
<circle cx="61" cy="106" r="1" fill="black"/>
<circle cx="66" cy="106" r="1" fill="black"/>
<circle cx="71" cy="106" r="1" fill="black"/>
<circle cx="76" cy="106" r="1" fill="black"/>
<circle cx="81" cy="106" r="1" fill="black"/>
<circle cx="86" cy="106" r="1" fill="black"/>
<circle cx="1" cy="111" r="1" fill="black"/>
<circle cx="6" cy="111" r="1" fill="black"/>
<circle cx="11" cy="111" r="1" fill="black"/>
<circle cx="16" cy="111" r="1" fill="black"/>
<circle cx="21" cy="111" r="1" fill="black"/>
<circle cx="26" cy="111" r="1" fill="black"/>
<circle cx="31" cy="111" r="1" fill="black"/>
<circle cx="36" cy="111" r="1" fill="black"/>
<circle cx="41" cy="111" r="1" fill="black"/>
<circle cx="46" cy="111" r="1" fill="black"/>
<circle cx="51" cy="111" r="1" fill="black"/>
<circle cx="56" cy="111" r="1" fill="black"/>
<circle cx="61" cy="111" r="1" fill="black"/>
<circle cx="66" cy="111" r="1" fill="black"/>
<circle cx="71" cy="111" r="1" fill="black"/>
<circle cx="76" cy="111" r="1" fill="black"/>
<circle cx="81" cy="111" r="1" fill="black"/>
<circle cx="86" cy="111" r="1" fill="black"/>
<circle cx="1" cy="116" r="1" fill="black"/>
<circle cx="6" cy="116" r="1" fill="black"/>
<circle cx="11" cy="116" r="1" fill="black"/>
<circle cx="16" cy="116" r="1" fill="black"/>
<circle cx="21" cy="116" r="1" fill="black"/>
<circle cx="26" cy="116" r="1" fill="black"/>
<circle cx="31" cy="116" r="1" fill="black"/>
<circle cx="36" cy="116" r="1" fill="black"/>
<circle cx="41" cy="116" r="1" fill="black"/>
<circle cx="46" cy="116" r="1" fill="black"/>
<circle cx="51" cy="116" r="1" fill="black"/>
<circle cx="56" cy="116" r="1" fill="black"/>
<circle cx="61" cy="116" r="1" fill="black"/>
<circle cx="66" cy="116" r="1" fill="black"/>
<circle cx="71" cy="116" r="1" fill="black"/>
<circle cx="76" cy="116" r="1" fill="black"/>
<circle cx="81" cy="116" r="1" fill="black"/>
<circle cx="86" cy="116" r="1" fill="black"/>
<circle cx="1" cy="121" r="1" fill="black"/>
<circle cx="6" cy="121" r="1" fill="black"/>
<circle cx="11" cy="121" r="1" fill="black"/>
<circle cx="16" cy="121" r="1" fill="black"/>
<circle cx="21" cy="121" r="1" fill="black"/>
<circle cx="26" cy="121" r="1" fill="black"/>
<circle cx="31" cy="121" r="1" fill="black"/>
<circle cx="36" cy="121" r="1" fill="black"/>
<circle cx="41" cy="121" r="1" fill="black"/>
<circle cx="46" cy="121" r="1" fill="black"/>
<circle cx="51" cy="121" r="1" fill="black"/>
<circle cx="56" cy="121" r="1" fill="black"/>
<circle cx="61" cy="121" r="1" fill="black"/>
<circle cx="66" cy="121" r="1" fill="black"/>
<circle cx="71" cy="121" r="1" fill="black"/>
<circle cx="76" cy="121" r="1" fill="black"/>
<circle cx="81" cy="121" r="1" fill="black"/>
<circle cx="86" cy="121" r="1" fill="black"/>
<circle cx="1" cy="126" r="1" fill="black"/>
<circle cx="6" cy="126" r="1" fill="black"/>
<circle cx="11" cy="126" r="1" fill="black"/>
<circle cx="16" cy="126" r="1" fill="black"/>
<circle cx="21" cy="126" r="1" fill="black"/>
<circle cx="26" cy="126" r="1" fill="black"/>
<circle cx="31" cy="126" r="1" fill="black"/>
<circle cx="36" cy="126" r="1" fill="black"/>
<circle cx="41" cy="126" r="1" fill="black"/>
<circle cx="46" cy="126" r="1" fill="black"/>
<circle cx="51" cy="126" r="1" fill="black"/>
<circle cx="56" cy="126" r="1" fill="black"/>
<circle cx="61" cy="126" r="1" fill="black"/>
<circle cx="66" cy="126" r="1" fill="black"/>
<circle cx="71" cy="126" r="1" fill="black"/>
<circle cx="76" cy="126" r="1" fill="black"/>
<circle cx="81" cy="126" r="1" fill="black"/>
<circle cx="86" cy="126" r="1" fill="black"/>
<circle cx="1" cy="131" r="1" fill="black"/>
<circle cx="6" cy="131" r="1" fill="black"/>
<circle cx="11" cy="131" r="1" fill="black"/>
<circle cx="16" cy="131" r="1" fill="black"/>
<circle cx="21" cy="131" r="1" fill="black"/>
<circle cx="26" cy="131" r="1" fill="black"/>
<circle cx="31" cy="131" r="1" fill="black"/>
<circle cx="36" cy="131" r="1" fill="black"/>
<circle cx="41" cy="131" r="1" fill="black"/>
<circle cx="46" cy="131" r="1" fill="black"/>
<circle cx="51" cy="131" r="1" fill="black"/>
<circle cx="56" cy="131" r="1" fill="black"/>
<circle cx="61" cy="131" r="1" fill="black"/>
<circle cx="66" cy="131" r="1" fill="black"/>
<circle cx="71" cy="131" r="1" fill="black"/>
<circle cx="76" cy="131" r="1" fill="black"/>
<circle cx="81" cy="131" r="1" fill="black"/>
<circle cx="86" cy="131" r="1" fill="black"/>
<circle cx="1" cy="136" r="1" fill="black"/>
<circle cx="6" cy="136" r="1" fill="black"/>
<circle cx="11" cy="136" r="1" fill="black"/>
<circle cx="16" cy="136" r="1" fill="black"/>
<circle cx="21" cy="136" r="1" fill="black"/>
<circle cx="26" cy="136" r="1" fill="black"/>
<circle cx="31" cy="136" r="1" fill="black"/>
<circle cx="36" cy="136" r="1" fill="black"/>
<circle cx="41" cy="136" r="1" fill="black"/>
<circle cx="46" cy="136" r="1" fill="black"/>
<circle cx="51" cy="136" r="1" fill="black"/>
<circle cx="56" cy="136" r="1" fill="black"/>
<circle cx="61" cy="136" r="1" fill="black"/>
<circle cx="66" cy="136" r="1" fill="black"/>
<circle cx="71" cy="136" r="1" fill="black"/>
<circle cx="76" cy="136" r="1" fill="black"/>
<circle cx="81" cy="136" r="1" fill="black"/>
<circle cx="86" cy="136" r="1" fill="black"/>
<circle cx="1" cy="141" r="1" fill="black"/>
<circle cx="6" cy="141" r="1" fill="black"/>
<circle cx="11" cy="141" r="1" fill="black"/>
<circle cx="16" cy="141" r="1" fill="black"/>
<circle cx="21" cy="141" r="1" fill="black"/>
<circle cx="26" cy="141" r="1" fill="black"/>
<circle cx="31" cy="141" r="1" fill="black"/>
<circle cx="36" cy="141" r="1" fill="black"/>
<circle cx="41" cy="141" r="1" fill="black"/>
<circle cx="46" cy="141" r="1" fill="black"/>
<circle cx="51" cy="141" r="1" fill="black"/>
<circle cx="56" cy="141" r="1" fill="black"/>
<circle cx="61" cy="141" r="1" fill="black"/>
<circle cx="66" cy="141" r="1" fill="black"/>
<circle cx="71" cy="141" r="1" fill="black"/>
<circle cx="76" cy="141" r="1" fill="black"/>
<circle cx="81" cy="141" r="1" fill="black"/>
<circle cx="86" cy="141" r="1" fill="black"/>
<circle cx="1" cy="146" r="1" fill="black"/>
<circle cx="6" cy="146" r="1" fill="black"/>
<circle cx="11" cy="146" r="1" fill="black"/>
<circle cx="16" cy="146" r="1" fill="black"/>
<circle cx="21" cy="146" r="1" fill="black"/>
<circle cx="26" cy="146" r="1" fill="black"/>
<circle cx="31" cy="146" r="1" fill="black"/>
<circle cx="36" cy="146" r="1" fill="black"/>
<circle cx="41" cy="146" r="1" fill="black"/>
<circle cx="46" cy="146" r="1" fill="black"/>
<circle cx="51" cy="146" r="1" fill="black"/>
<circle cx="56" cy="146" r="1" fill="black"/>
<circle cx="61" cy="146" r="1" fill="black"/>
<circle cx="66" cy="146" r="1" fill="black"/>
<circle cx="71" cy="146" r="1" fill="black"/>
<circle cx="76" cy="146" r="1" fill="black"/>
<circle cx="81" cy="146" r="1" fill="black"/>
<circle cx="86" cy="146" r="1" fill="black"/>
<circle cx="1" cy="151" r="1" fill="black"/>
<circle cx="6" cy="151" r="1" fill="black"/>
<circle cx="11" cy="151" r="1" fill="black"/>
<circle cx="16" cy="151" r="1" fill="black"/>
<circle cx="21" cy="151" r="1" fill="black"/>
<circle cx="26" cy="151" r="1" fill="black"/>
<circle cx="31" cy="151" r="1" fill="black"/>
<circle cx="36" cy="151" r="1" fill="black"/>
<circle cx="41" cy="151" r="1" fill="black"/>
<circle cx="46" cy="151" r="1" fill="black"/>
<circle cx="51" cy="151" r="1" fill="black"/>
<circle cx="56" cy="151" r="1" fill="black"/>
<circle cx="61" cy="151" r="1" fill="black"/>
<circle cx="66" cy="151" r="1" fill="black"/>
<circle cx="71" cy="151" r="1" fill="black"/>
<circle cx="76" cy="151" r="1" fill="black"/>
<circle cx="81" cy="151" r="1" fill="black"/>
<circle cx="86" cy="151" r="1" fill="black"/>
<circle cx="1" cy="156" r="1" fill="black"/>
<circle cx="6" cy="156" r="1" fill="black"/>
<circle cx="11" cy="156" r="1" fill="black"/>
<circle cx="16" cy="156" r="1" fill="black"/>
<circle cx="21" cy="156" r="1" fill="black"/>
<circle cx="26" cy="156" r="1" fill="black"/>
<circle cx="31" cy="156" r="1" fill="black"/>
<circle cx="36" cy="156" r="1" fill="black"/>
<circle cx="41" cy="156" r="1" fill="black"/>
<circle cx="46" cy="156" r="1" fill="black"/>
<circle cx="51" cy="156" r="1" fill="black"/>
<circle cx="56" cy="156" r="1" fill="black"/>
<circle cx="61" cy="156" r="1" fill="black"/>
<circle cx="66" cy="156" r="1" fill="black"/>
<circle cx="71" cy="156" r="1" fill="black"/>
<circle cx="76" cy="156" r="1" fill="black"/>
<circle cx="81" cy="156" r="1" fill="black"/>
<circle cx="86" cy="156" r="1" fill="black"/>
<circle cx="1" cy="161" r="1" fill="black"/>
<circle cx="6" cy="161" r="1" fill="black"/>
<circle cx="11" cy="161" r="1" fill="black"/>
<circle cx="16" cy="161" r="1" fill="black"/>
<circle cx="21" cy="161" r="1" fill="black"/>
<circle cx="26" cy="161" r="1" fill="black"/>
<circle cx="31" cy="161" r="1" fill="black"/>
<circle cx="36" cy="161" r="1" fill="black"/>
<circle cx="41" cy="161" r="1" fill="black"/>
<circle cx="46" cy="161" r="1" fill="black"/>
<circle cx="51" cy="161" r="1" fill="black"/>
<circle cx="56" cy="161" r="1" fill="black"/>
<circle cx="61" cy="161" r="1" fill="black"/>
<circle cx="66" cy="161" r="1" fill="black"/>
<circle cx="71" cy="161" r="1" fill="black"/>
<circle cx="76" cy="161" r="1" fill="black"/>
<circle cx="81" cy="161" r="1" fill="black"/>
<circle cx="86" cy="161" r="1" fill="black"/>
<circle cx="1" cy="166" r="1" fill="black"/>
<circle cx="6" cy="166" r="1" fill="black"/>
<circle cx="11" cy="166" r="1" fill="black"/>
<circle cx="16" cy="166" r="1" fill="black"/>
<circle cx="21" cy="166" r="1" fill="black"/>
<circle cx="26" cy="166" r="1" fill="black"/>
<circle cx="31" cy="166" r="1" fill="black"/>
<circle cx="36" cy="166" r="1" fill="black"/>
<circle cx="41" cy="166" r="1" fill="black"/>
<circle cx="46" cy="166" r="1" fill="black"/>
<circle cx="51" cy="166" r="1" fill="black"/>
<circle cx="56" cy="166" r="1" fill="black"/>
<circle cx="61" cy="166" r="1" fill="black"/>
<circle cx="66" cy="166" r="1" fill="black"/>
<circle cx="71" cy="166" r="1" fill="black"/>
<circle cx="76" cy="166" r="1" fill="black"/>
<circle cx="81" cy="166" r="1" fill="black"/>
<circle cx="86" cy="166" r="1" fill="black"/>
<circle cx="1" cy="171" r="1" fill="black"/>
<circle cx="6" cy="171" r="1" fill="black"/>
<circle cx="11" cy="171" r="1" fill="black"/>
<circle cx="16" cy="171" r="1" fill="black"/>
<circle cx="21" cy="171" r="1" fill="black"/>
<circle cx="26" cy="171" r="1" fill="black"/>
<circle cx="31" cy="171" r="1" fill="black"/>
<circle cx="36" cy="171" r="1" fill="black"/>
<circle cx="41" cy="171" r="1" fill="black"/>
<circle cx="46" cy="171" r="1" fill="black"/>
<circle cx="51" cy="171" r="1" fill="black"/>
<circle cx="56" cy="171" r="1" fill="black"/>
<circle cx="61" cy="171" r="1" fill="black"/>
<circle cx="66" cy="171" r="1" fill="black"/>
<circle cx="71" cy="171" r="1" fill="black"/>
<circle cx="76" cy="171" r="1" fill="black"/>
<circle cx="81" cy="171" r="1" fill="black"/>
<circle cx="86" cy="171" r="1" fill="black"/>
<circle cx="1" cy="176" r="1" fill="black"/>
<circle cx="6" cy="176" r="1" fill="black"/>
<circle cx="11" cy="176" r="1" fill="black"/>
<circle cx="16" cy="176" r="1" fill="black"/>
<circle cx="21" cy="176" r="1" fill="black"/>
<circle cx="26" cy="176" r="1" fill="black"/>
<circle cx="31" cy="176" r="1" fill="black"/>
<circle cx="36" cy="176" r="1" fill="black"/>
<circle cx="41" cy="176" r="1" fill="black"/>
<circle cx="46" cy="176" r="1" fill="black"/>
<circle cx="51" cy="176" r="1" fill="black"/>
<circle cx="56" cy="176" r="1" fill="black"/>
<circle cx="61" cy="176" r="1" fill="black"/>
<circle cx="66" cy="176" r="1" fill="black"/>
<circle cx="71" cy="176" r="1" fill="black"/>
<circle cx="76" cy="176" r="1" fill="black"/>
<circle cx="81" cy="176" r="1" fill="black"/>
<circle cx="86" cy="176" r="1" fill="black"/>
<circle cx="1" cy="181" r="1" fill="black"/>
<circle cx="6" cy="181" r="1" fill="black"/>
<circle cx="11" cy="181" r="1" fill="black"/>
<circle cx="16" cy="181" r="1" fill="black"/>
<circle cx="21" cy="181" r="1" fill="black"/>
<circle cx="26" cy="181" r="1" fill="black"/>
<circle cx="31" cy="181" r="1" fill="black"/>
<circle cx="36" cy="181" r="1" fill="black"/>
<circle cx="41" cy="181" r="1" fill="black"/>
<circle cx="46" cy="181" r="1" fill="black"/>
<circle cx="51" cy="181" r="1" fill="black"/>
<circle cx="56" cy="181" r="1" fill="black"/>
<circle cx="61" cy="181" r="1" fill="black"/>
<circle cx="66" cy="181" r="1" fill="black"/>
<circle cx="71" cy="181" r="1" fill="black"/>
<circle cx="76" cy="181" r="1" fill="black"/>
<circle cx="81" cy="181" r="1" fill="black"/>
<circle cx="86" cy="181" r="1" fill="black"/>
<circle cx="1" cy="186" r="1" fill="black"/>
<circle cx="6" cy="186" r="1" fill="black"/>
<circle cx="11" cy="186" r="1" fill="black"/>
<circle cx="16" cy="186" r="1" fill="black"/>
<circle cx="21" cy="186" r="1" fill="black"/>
<circle cx="26" cy="186" r="1" fill="black"/>
<circle cx="31" cy="186" r="1" fill="black"/>
<circle cx="36" cy="186" r="1" fill="black"/>
<circle cx="41" cy="186" r="1" fill="black"/>
<circle cx="46" cy="186" r="1" fill="black"/>
<circle cx="51" cy="186" r="1" fill="black"/>
<circle cx="56" cy="186" r="1" fill="black"/>
<circle cx="61" cy="186" r="1" fill="black"/>
<circle cx="66" cy="186" r="1" fill="black"/>
<circle cx="71" cy="186" r="1" fill="black"/>
<circle cx="76" cy="186" r="1" fill="black"/>
<circle cx="81" cy="186" r="1" fill="black"/>
<circle cx="86" cy="186" r="1" fill="black"/>
<circle cx="1" cy="191" r="1" fill="black"/>
<circle cx="6" cy="191" r="1" fill="black"/>
<circle cx="11" cy="191" r="1" fill="black"/>
<circle cx="16" cy="191" r="1" fill="black"/>
<circle cx="21" cy="191" r="1" fill="black"/>
<circle cx="26" cy="191" r="1" fill="black"/>
<circle cx="31" cy="191" r="1" fill="black"/>
<circle cx="36" cy="191" r="1" fill="black"/>
<circle cx="41" cy="191" r="1" fill="black"/>
<circle cx="46" cy="191" r="1" fill="black"/>
<circle cx="51" cy="191" r="1" fill="black"/>
<circle cx="56" cy="191" r="1" fill="black"/>
<circle cx="61" cy="191" r="1" fill="black"/>
<circle cx="66" cy="191" r="1" fill="black"/>
<circle cx="71" cy="191" r="1" fill="black"/>
<circle cx="76" cy="191" r="1" fill="black"/>
<circle cx="81" cy="191" r="1" fill="black"/>
<circle cx="86" cy="191" r="1" fill="black"/>
<circle cx="1" cy="196" r="1" fill="black"/>
<circle cx="6" cy="196" r="1" fill="black"/>
<circle cx="11" cy="196" r="1" fill="black"/>
<circle cx="16" cy="196" r="1" fill="black"/>
<circle cx="21" cy="196" r="1" fill="black"/>
<circle cx="26" cy="196" r="1" fill="black"/>
<circle cx="31" cy="196" r="1" fill="black"/>
<circle cx="36" cy="196" r="1" fill="black"/>
<circle cx="41" cy="196" r="1" fill="black"/>
<circle cx="46" cy="196" r="1" fill="black"/>
<circle cx="51" cy="196" r="1" fill="black"/>
<circle cx="56" cy="196" r="1" fill="black"/>
<circle cx="61" cy="196" r="1" fill="black"/>
<circle cx="66" cy="196" r="1" fill="black"/>
<circle cx="71" cy="196" r="1" fill="black"/>
<circle cx="76" cy="196" r="1" fill="black"/>
<circle cx="81" cy="196" r="1" fill="black"/>
<circle cx="86" cy="196" r="1" fill="black"/>
<circle cx="1" cy="201" r="1" fill="black"/>
<circle cx="6" cy="201" r="1" fill="black"/>
<circle cx="11" cy="201" r="1" fill="black"/>
<circle cx="16" cy="201" r="1" fill="black"/>
<circle cx="21" cy="201" r="1" fill="black"/>
<circle cx="26" cy="201" r="1" fill="black"/>
<circle cx="31" cy="201" r="1" fill="black"/>
<circle cx="36" cy="201" r="1" fill="black"/>
<circle cx="41" cy="201" r="1" fill="black"/>
<circle cx="46" cy="201" r="1" fill="black"/>
<circle cx="51" cy="201" r="1" fill="black"/>
<circle cx="56" cy="201" r="1" fill="black"/>
<circle cx="61" cy="201" r="1" fill="black"/>
<circle cx="66" cy="201" r="1" fill="black"/>
<circle cx="71" cy="201" r="1" fill="black"/>
<circle cx="76" cy="201" r="1" fill="black"/>
<circle cx="81" cy="201" r="1" fill="black"/>
<circle cx="86" cy="201" r="1" fill="black"/>
<circle cx="1" cy="206" r="1" fill="black"/>
<circle cx="6" cy="206" r="1" fill="black"/>
<circle cx="11" cy="206" r="1" fill="black"/>
<circle cx="16" cy="206" r="1" fill="black"/>
<circle cx="21" cy="206" r="1" fill="black"/>
<circle cx="26" cy="206" r="1" fill="black"/>
<circle cx="31" cy="206" r="1" fill="black"/>
<circle cx="36" cy="206" r="1" fill="black"/>
<circle cx="41" cy="206" r="1" fill="black"/>
<circle cx="46" cy="206" r="1" fill="black"/>
<circle cx="51" cy="206" r="1" fill="black"/>
<circle cx="56" cy="206" r="1" fill="black"/>
<circle cx="61" cy="206" r="1" fill="black"/>
<circle cx="66" cy="206" r="1" fill="black"/>
<circle cx="71" cy="206" r="1" fill="black"/>
<circle cx="76" cy="206" r="1" fill="black"/>
<circle cx="81" cy="206" r="1" fill="black"/>
<circle cx="86" cy="206" r="1" fill="black"/>
<circle cx="1" cy="211" r="1" fill="black"/>
<circle cx="6" cy="211" r="1" fill="black"/>
<circle cx="11" cy="211" r="1" fill="black"/>
<circle cx="16" cy="211" r="1" fill="black"/>
<circle cx="21" cy="211" r="1" fill="black"/>
<circle cx="26" cy="211" r="1" fill="black"/>
<circle cx="31" cy="211" r="1" fill="black"/>
<circle cx="36" cy="211" r="1" fill="black"/>
<circle cx="41" cy="211" r="1" fill="black"/>
<circle cx="46" cy="211" r="1" fill="black"/>
<circle cx="51" cy="211" r="1" fill="black"/>
<circle cx="56" cy="211" r="1" fill="black"/>
<circle cx="61" cy="211" r="1" fill="black"/>
<circle cx="66" cy="211" r="1" fill="black"/>
<circle cx="71" cy="211" r="1" fill="black"/>
<circle cx="76" cy="211" r="1" fill="black"/>
<circle cx="81" cy="211" r="1" fill="black"/>
<circle cx="86" cy="211" r="1" fill="black"/>
<circle cx="1" cy="216" r="1" fill="black"/>
<circle cx="6" cy="216" r="1" fill="black"/>
<circle cx="11" cy="216" r="1" fill="black"/>
<circle cx="16" cy="216" r="1" fill="black"/>
<circle cx="21" cy="216" r="1" fill="black"/>
<circle cx="26" cy="216" r="1" fill="black"/>
<circle cx="31" cy="216" r="1" fill="black"/>
<circle cx="36" cy="216" r="1" fill="black"/>
<circle cx="41" cy="216" r="1" fill="black"/>
<circle cx="46" cy="216" r="1" fill="black"/>
<circle cx="51" cy="216" r="1" fill="black"/>
<circle cx="56" cy="216" r="1" fill="black"/>
<circle cx="61" cy="216" r="1" fill="black"/>
<circle cx="66" cy="216" r="1" fill="black"/>
<circle cx="71" cy="216" r="1" fill="black"/>
<circle cx="76" cy="216" r="1" fill="black"/>
<circle cx="81" cy="216" r="1" fill="black"/>
<circle cx="86" cy="216" r="1" fill="black"/>
<circle cx="1" cy="221" r="1" fill="black"/>
<circle cx="6" cy="221" r="1" fill="black"/>
<circle cx="11" cy="221" r="1" fill="black"/>
<circle cx="16" cy="221" r="1" fill="black"/>
<circle cx="21" cy="221" r="1" fill="black"/>
<circle cx="26" cy="221" r="1" fill="black"/>
<circle cx="31" cy="221" r="1" fill="black"/>
<circle cx="36" cy="221" r="1" fill="black"/>
<circle cx="41" cy="221" r="1" fill="black"/>
<circle cx="46" cy="221" r="1" fill="black"/>
<circle cx="51" cy="221" r="1" fill="black"/>
<circle cx="56" cy="221" r="1" fill="black"/>
<circle cx="61" cy="221" r="1" fill="black"/>
<circle cx="66" cy="221" r="1" fill="black"/>
<circle cx="71" cy="221" r="1" fill="black"/>
<circle cx="76" cy="221" r="1" fill="black"/>
<circle cx="81" cy="221" r="1" fill="black"/>
<circle cx="86" cy="221" r="1" fill="black"/>
<circle cx="1" cy="226" r="1" fill="black"/>
<circle cx="6" cy="226" r="1" fill="black"/>
<circle cx="11" cy="226" r="1" fill="black"/>
<circle cx="16" cy="226" r="1" fill="black"/>
<circle cx="21" cy="226" r="1" fill="black"/>
<circle cx="26" cy="226" r="1" fill="black"/>
<circle cx="31" cy="226" r="1" fill="black"/>
<circle cx="36" cy="226" r="1" fill="black"/>
<circle cx="41" cy="226" r="1" fill="black"/>
<circle cx="46" cy="226" r="1" fill="black"/>
<circle cx="51" cy="226" r="1" fill="black"/>
<circle cx="56" cy="226" r="1" fill="black"/>
<circle cx="61" cy="226" r="1" fill="black"/>
<circle cx="66" cy="226" r="1" fill="black"/>
<circle cx="71" cy="226" r="1" fill="black"/>
<circle cx="76" cy="226" r="1" fill="black"/>
<circle cx="81" cy="226" r="1" fill="black"/>
<circle cx="86" cy="226" r="1" fill="black"/>
<circle cx="1" cy="231" r="1" fill="black"/>
<circle cx="6" cy="231" r="1" fill="black"/>
<circle cx="11" cy="231" r="1" fill="black"/>
<circle cx="16" cy="231" r="1" fill="black"/>
<circle cx="21" cy="231" r="1" fill="black"/>
<circle cx="26" cy="231" r="1" fill="black"/>
<circle cx="31" cy="231" r="1" fill="black"/>
<circle cx="36" cy="231" r="1" fill="black"/>
<circle cx="41" cy="231" r="1" fill="black"/>
<circle cx="46" cy="231" r="1" fill="black"/>
<circle cx="51" cy="231" r="1" fill="black"/>
<circle cx="56" cy="231" r="1" fill="black"/>
<circle cx="61" cy="231" r="1" fill="black"/>
<circle cx="66" cy="231" r="1" fill="black"/>
<circle cx="71" cy="231" r="1" fill="black"/>
<circle cx="76" cy="231" r="1" fill="black"/>
<circle cx="81" cy="231" r="1" fill="black"/>
<circle cx="86" cy="231" r="1" fill="black"/>
<circle cx="1" cy="236" r="1" fill="black"/>
<circle cx="6" cy="236" r="1" fill="black"/>
<circle cx="11" cy="236" r="1" fill="black"/>
<circle cx="16" cy="236" r="1" fill="black"/>
<circle cx="21" cy="236" r="1" fill="black"/>
<circle cx="26" cy="236" r="1" fill="black"/>
<circle cx="31" cy="236" r="1" fill="black"/>
<circle cx="36" cy="236" r="1" fill="black"/>
<circle cx="41" cy="236" r="1" fill="black"/>
<circle cx="46" cy="236" r="1" fill="black"/>
<circle cx="51" cy="236" r="1" fill="black"/>
<circle cx="56" cy="236" r="1" fill="black"/>
<circle cx="61" cy="236" r="1" fill="black"/>
<circle cx="66" cy="236" r="1" fill="black"/>
<circle cx="71" cy="236" r="1" fill="black"/>
<circle cx="76" cy="236" r="1" fill="black"/>
<circle cx="81" cy="236" r="1" fill="black"/>
<circle cx="86" cy="236" r="1" fill="black"/>
<circle cx="1" cy="241" r="1" fill="black"/>
<circle cx="6" cy="241" r="1" fill="black"/>
<circle cx="11" cy="241" r="1" fill="black"/>
<circle cx="16" cy="241" r="1" fill="black"/>
<circle cx="21" cy="241" r="1" fill="black"/>
<circle cx="26" cy="241" r="1" fill="black"/>
<circle cx="31" cy="241" r="1" fill="black"/>
<circle cx="36" cy="241" r="1" fill="black"/>
<circle cx="41" cy="241" r="1" fill="black"/>
<circle cx="46" cy="241" r="1" fill="black"/>
<circle cx="51" cy="241" r="1" fill="black"/>
<circle cx="56" cy="241" r="1" fill="black"/>
<circle cx="61" cy="241" r="1" fill="black"/>
<circle cx="66" cy="241" r="1" fill="black"/>
<circle cx="71" cy="241" r="1" fill="black"/>
<circle cx="76" cy="241" r="1" fill="black"/>
<circle cx="81" cy="241" r="1" fill="black"/>
<circle cx="86" cy="241" r="1" fill="black"/>
<circle cx="1" cy="246" r="1" fill="black"/>
<circle cx="6" cy="246" r="1" fill="black"/>
<circle cx="11" cy="246" r="1" fill="black"/>
<circle cx="16" cy="246" r="1" fill="black"/>
<circle cx="21" cy="246" r="1" fill="black"/>
<circle cx="26" cy="246" r="1" fill="black"/>
<circle cx="31" cy="246" r="1" fill="black"/>
<circle cx="36" cy="246" r="1" fill="black"/>
<circle cx="41" cy="246" r="1" fill="black"/>
<circle cx="46" cy="246" r="1" fill="black"/>
<circle cx="51" cy="246" r="1" fill="black"/>
<circle cx="56" cy="246" r="1" fill="black"/>
<circle cx="61" cy="246" r="1" fill="black"/>
<circle cx="66" cy="246" r="1" fill="black"/>
<circle cx="71" cy="246" r="1" fill="black"/>
<circle cx="76" cy="246" r="1" fill="black"/>
<circle cx="81" cy="246" r="1" fill="black"/>
<circle cx="86" cy="246" r="1" fill="black"/>
<circle cx="1" cy="251" r="1" fill="black"/>
<circle cx="6" cy="251" r="1" fill="black"/>
<circle cx="11" cy="251" r="1" fill="black"/>
<circle cx="16" cy="251" r="1" fill="black"/>
<circle cx="21" cy="251" r="1" fill="black"/>
<circle cx="26" cy="251" r="1" fill="black"/>
<circle cx="31" cy="251" r="1" fill="black"/>
<circle cx="36" cy="251" r="1" fill="black"/>
<circle cx="41" cy="251" r="1" fill="black"/>
<circle cx="46" cy="251" r="1" fill="black"/>
<circle cx="51" cy="251" r="1" fill="black"/>
<circle cx="56" cy="251" r="1" fill="black"/>
<circle cx="61" cy="251" r="1" fill="black"/>
<circle cx="66" cy="251" r="1" fill="black"/>
<circle cx="71" cy="251" r="1" fill="black"/>
<circle cx="76" cy="251" r="1" fill="black"/>
<circle cx="81" cy="251" r="1" fill="black"/>
<circle cx="86" cy="251" r="1" fill="black"/>
<circle cx="1" cy="256" r="1" fill="black"/>
<circle cx="6" cy="256" r="1" fill="black"/>
<circle cx="11" cy="256" r="1" fill="black"/>
<circle cx="16" cy="256" r="1" fill="black"/>
<circle cx="21" cy="256" r="1" fill="black"/>
</g>
<defs>
<clipPath id="clip0_1_987">
<rect width="90" height="256" fill="white"/>
</clipPath>
</defs>
</svg>
