<svg id="visual" viewBox="0 0 960 540" width="960" height="540" xmlns="http://www.w3.org/2000/svg" xmlns:xlink="http://www.w3.org/1999/xlink" version="1.1"><rect x="0" y="0" width="960" height="540" fill="#00213a"></rect><defs><linearGradient id="grad1_0" x1="43.8%" y1="0%" x2="100%" y2="100%"><stop offset="14.444444444444446%" stop-color="#eb54a6" stop-opacity="1"></stop><stop offset="85.55555555555554%" stop-color="#eb54a6" stop-opacity="1"></stop></linearGradient></defs><defs><linearGradient id="grad1_1" x1="43.8%" y1="0%" x2="100%" y2="100%"><stop offset="14.444444444444446%" stop-color="#eb54a6" stop-opacity="1"></stop><stop offset="85.55555555555554%" stop-color="#b350a3" stop-opacity="1"></stop></linearGradient></defs><defs><linearGradient id="grad1_2" x1="43.8%" y1="0%" x2="100%" y2="100%"><stop offset="14.444444444444446%" stop-color="#7b4a94" stop-opacity="1"></stop><stop offset="85.55555555555554%" stop-color="#b350a3" stop-opacity="1"></stop></linearGradient></defs><defs><linearGradient id="grad1_3" x1="43.8%" y1="0%" x2="100%" y2="100%"><stop offset="14.444444444444446%" stop-color="#7b4a94" stop-opacity="1"></stop><stop offset="85.55555555555554%" stop-color="#48407c" stop-opacity="1"></stop></linearGradient></defs><defs><linearGradient id="grad1_4" x1="43.8%" y1="0%" x2="100%" y2="100%"><stop offset="14.444444444444446%" stop-color="#1d325d" stop-opacity="1"></stop><stop offset="85.55555555555554%" stop-color="#48407c" stop-opacity="1"></stop></linearGradient></defs><defs><linearGradient id="grad1_5" x1="43.8%" y1="0%" x2="100%" y2="100%"><stop offset="14.444444444444446%" stop-color="#1d325d" stop-opacity="1"></stop><stop offset="85.55555555555554%" stop-color="#00213a" stop-opacity="1"></stop></linearGradient></defs><defs><linearGradient id="grad2_0" x1="0%" y1="0%" x2="56.3%" y2="100%"><stop offset="14.444444444444446%" stop-color="#eb54a6" stop-opacity="1"></stop><stop offset="85.55555555555554%" stop-color="#eb54a6" stop-opacity="1"></stop></linearGradient></defs><defs><linearGradient id="grad2_1" x1="0%" y1="0%" x2="56.3%" y2="100%"><stop offset="14.444444444444446%" stop-color="#b350a3" stop-opacity="1"></stop><stop offset="85.55555555555554%" stop-color="#eb54a6" stop-opacity="1"></stop></linearGradient></defs><defs><linearGradient id="grad2_2" x1="0%" y1="0%" x2="56.3%" y2="100%"><stop offset="14.444444444444446%" stop-color="#b350a3" stop-opacity="1"></stop><stop offset="85.55555555555554%" stop-color="#7b4a94" stop-opacity="1"></stop></linearGradient></defs><defs><linearGradient id="grad2_3" x1="0%" y1="0%" x2="56.3%" y2="100%"><stop offset="14.444444444444446%" stop-color="#48407c" stop-opacity="1"></stop><stop offset="85.55555555555554%" stop-color="#7b4a94" stop-opacity="1"></stop></linearGradient></defs><defs><linearGradient id="grad2_4" x1="0%" y1="0%" x2="56.3%" y2="100%"><stop offset="14.444444444444446%" stop-color="#48407c" stop-opacity="1"></stop><stop offset="85.55555555555554%" stop-color="#1d325d" stop-opacity="1"></stop></linearGradient></defs><defs><linearGradient id="grad2_5" x1="0%" y1="0%" x2="56.3%" y2="100%"><stop offset="14.444444444444446%" stop-color="#00213a" stop-opacity="1"></stop><stop offset="85.55555555555554%" stop-color="#1d325d" stop-opacity="1"></stop></linearGradient></defs><g transform="translate(960, 0)"><path d="M0 459C-60.9 414.3 -121.9 369.5 -194.5 336.9C-267.1 304.2 -351.5 283.6 -397.5 229.5C-443.5 175.4 -451.3 87.7 -459 0L0 0Z" fill="#0b2a4b"></path><path d="M0 382.5C-50.8 345.2 -101.6 308 -162.1 280.7C-222.6 253.5 -292.9 236.4 -331.3 191.3C-369.6 146.1 -376.1 73.1 -382.5 0L0 0Z" fill="#32396d"></path><path d="M0 306C-40.6 276.2 -81.2 246.4 -129.7 224.6C-178.1 202.8 -234.3 189.1 -265 153C-295.7 116.9 -300.8 58.5 -306 0L0 0Z" fill="#614589"></path><path d="M0 229.5C-30.5 207.1 -60.9 184.8 -97.2 168.4C-133.6 152.1 -175.7 141.8 -198.8 114.8C-221.8 87.7 -225.6 43.8 -229.5 0L0 0Z" fill="#974d9d"></path><path d="M0 153C-20.3 138.1 -40.6 123.2 -64.8 112.3C-89 101.4 -117.2 94.5 -132.5 76.5C-147.8 58.5 -150.4 29.2 -153 0L0 0Z" fill="#cf52a6"></path><path d="M0 76.5C-10.2 69 -20.3 61.6 -32.4 56.1C-44.5 50.7 -58.6 47.3 -66.3 38.3C-73.9 29.2 -75.2 14.6 -76.5 0L0 0Z" fill="#eb54a6"></path></g><g transform="translate(0, 540)"><path d="M0 -459C55.6 -405 111.2 -351.1 184.5 -319.6C257.8 -288.1 348.8 -279 397.5 -229.5C446.2 -180 452.6 -90 459 0L0 0Z" fill="#0b2a4b"></path><path d="M0 -382.5C46.3 -337.5 92.7 -292.6 153.7 -266.3C214.8 -240 290.7 -232.5 331.3 -191.3C371.8 -150 377.2 -75 382.5 0L0 0Z" fill="#32396d"></path><path d="M0 -306C37.1 -270 74.1 -234 123 -213C171.9 -192 232.5 -186 265 -153C297.5 -120 301.7 -60 306 0L0 0Z" fill="#614589"></path><path d="M0 -229.5C27.8 -202.5 55.6 -175.5 92.2 -159.8C128.9 -144 174.4 -139.5 198.8 -114.8C223.1 -90 226.3 -45 229.5 0L0 0Z" fill="#974d9d"></path><path d="M0 -153C18.5 -135 37.1 -117 61.5 -106.5C85.9 -96 116.3 -93 132.5 -76.5C148.7 -60 150.9 -30 153 0L0 0Z" fill="#cf52a6"></path><path d="M0 -76.5C9.3 -67.5 18.5 -58.5 30.7 -53.3C43 -48 58.1 -46.5 66.3 -38.3C74.4 -30 75.4 -15 76.5 0L0 0Z" fill="#eb54a6"></path></g></svg>